<svg xmlns="http://www.w3.org/2000/svg" xmlns:xlink="http://www.w3.org/1999/xlink" viewBox="0 0 1757.68 431.63"><defs><style>.cls-1{fill:url(#linear-gradient);}.cls-2{fill:#1d1d1b;}</style><linearGradient id="linear-gradient" x1="-1619.41" y1="2971.99" x2="-1962.3" y2="3351.28" gradientTransform="translate(578.82 -3286.15) rotate(-45)" gradientUnits="userSpaceOnUse"><stop offset="0" stop-color="#fdc800"/><stop offset="0.59" stop-color="#f5a421"/><stop offset="1" stop-color="#f18f34"/></linearGradient></defs><title>Asset 2</title><g id="Layer_2" data-name="Layer 2"><g id="Layer_1-2" data-name="Layer 1"><path class="cls-1" d="M1615.67,12.63A18.82,18.82,0,0,0,1603.75,7a41.25,41.25,0,0,0-12,.48c-7.73,1.4-15,4.19-22.57,6.22-16.41,4.42-32.83,8.76-49.21,13.29Q1472,40.27,1424.07,53.67c-7.14,2-14.17,4.16-21.32,6.22a6.32,6.32,0,0,0-2.32,1.29c-5.66,4.79-10,10.34-11,18a9.42,9.42,0,0,1-.44,1.4c-5,16.16-9.13,32.54-14,48.74-1.54,5.23-2.68,10.64-4.08,15.94-9.76,36.26-19.55,72.48-29.82,108.6-2,6.81-3,13.8-1.91,21a9.73,9.73,0,0,0,3.13,6.44c1.65,1.44,3.16,3.09,4.74,4.68l137,137a6.27,6.27,0,0,0,3.17,1.7c7.8,1.62,15.57.92,23.23-.85,9.38-2.17,18.36-5.63,27.6-8.17q51-13.81,101.94-27.72c15.46-4.2,30.84-8.62,46.34-12.78,5.93-1.58,11.19-4.05,15.06-9,1.25-1.61,2.8-2.87,3.38-5,2.62-9.31,5.53-18.55,8.1-27.83q14.08-51.2,28-102.41c4.49-16.42,9.06-32.76,13.58-49.15,1.55-5.52,3.8-10.93,3.1-16.85-.37-3.17-.92-6.37-1.22-9.54a5.31,5.31,0,0,0-1.73-3.64c-23.49-23.42-47-47-70.6-70.53C1661.21,58.31,1638.31,35.56,1615.67,12.63Zm-18.33,19.51c2.28-1.77,3.31-1.55,4.42,1.17q5.46,13,10.86,25.88,16.45,39.21,33,78.34c3,7,5.89,14.06,8.87,21.09.33.77.81,1.62.3,2.36-.41.55-1.22.11-1.84,0q-71.29-13.65-142.46-27.32l-26.84-5.19c-1.1-.22-2.8.08-3.17-.88-.4-1.14,1-2.06,1.73-2.76,6.89-5.56,13.51-11,20.25-16.42q15.13-12.25,30.33-24.44c10.16-8.18,20.43-16.31,30.59-24.48,9.21-7.44,18.34-15,27.54-22.38C1593,35.41,1595.21,33.76,1597.34,32.14ZM1417.59,76.71c-2.54-2.61-2.21-4,1.43-5L1505.68,48q34.35-9.39,68.65-18.81c1-.3,2-.55,3.17-.81a8.23,8.23,0,0,1-3.57,6.51c-11.49,8.47-22.71,17.34-33.79,26.36q-19.44,15.79-38.91,31.4c-10.9,8.76-21.8,17.45-32.69,26.21-.59.44-1.14.92-1.77,1.33-2.5,1.84-3.57,1.8-5.78-.41-5.63-5.63-11.23-11.3-16.9-17q-12.85-12.75-25.8-25.44ZM1472.73,145c-.55-4.08.33-5,4.42-4.19q22.53,4.3,45,8.65,25.18,4.86,50.32,9.61,38.16,7.23,76.31,14.39c1.07.18,2.14.37,2.58,1.55s-.22,1.69-.88,2.35c-9.79,9.72-19.66,19.44-29.42,29.19q-40.8,40.69-81.5,81.43l-28,28c-1.51,1.51-3.17,2.88-5.15,4.64-1.59-8.35-3.13-16.16-4.61-24-2.76-14.62-5.59-29.23-8.35-43.84q-6.9-36.28-13.84-72.6c-2.21-11.56-4.49-23-6.74-34.56A1.4,1.4,0,0,1,1472.73,145Zm-86.14,4.86q8.46-30.87,17-61.69c1.33-4.86,2.36-5.08,6-1.44,6.41,6.41,12.7,12.85,19.11,19.25,7.51,7.51,15,14.91,22.56,22.42,2.91,2.91,3,3.68.44,6.85-10,12.4-19.91,24.85-30,37.25l-40.09,49.59c-4.9,6.07-9.83,12.11-14.69,18.22a16.39,16.39,0,0,0-2.21,3.53c-.88,2-2.43,2.73-4.74,2.84C1369,214.06,1377.76,181.92,1386.59,149.82Zm-22.64,115q2.65-3.44,5.42-6.74l20.35-25q12.65-15.62,25.33-31.21c4-5,8.1-9.94,12.11-14.91,8.54-10.53,17-21.06,25.55-31.59,1.73-2.09,3.46-4.19,5.22-6.18.41-.48.85-1.21,1.55-1s.52,1.1.66,1.69c3.83,20,7.7,39.87,11.45,59.82,1.25,6.63,2.21,13.33,3.61,19.88,5.23,24.59,9.46,49.36,14.39,74,1.33,6.62,2.54,13.21,3.87,20.36-5.89-2.51-11.3-4.83-16.71-7.07l-71.16-30.3c-13-5.52-26-11-39-16.49-.52-.22-1.07-.48-1.55-.74C1362.67,268.14,1362.37,266.88,1364,264.79ZM1489,402.46c-.48,1.66-1.07,1.73-2.21.52-5.7-5.78-11.48-11.56-17.23-17.3L1430,346.07l-56.17-56.18c-.52-.51-1.69-1-1.1-1.91s1.5-.33,2.24,0c14.36,6.11,28.68,12.26,43.07,18.33q34.79,14.69,69.65,29.38c.62.26,1.21.55,1.8.77,5.41,2.39,6.11,3.54,5.49,9.46-1,9.79-2.25,19.62-3,29.41-.56,7.4-1.33,14.73-1.88,22.13A29.52,29.52,0,0,1,1489,402.46Zm175-37.84c-4.45,1.21-8.83,2.5-13.29,3.72-8.54,2.35-17.11,4.75-25.65,7.1l-99.95,27.5c-6.07,1.66-12.14,3.39-18.26,5-3.9,1-4.63.44-4.27-3.54q2.6-29.1,5.34-58.2c.3-2.94,1.51-3.86,4.49-3.46q41.25,5.36,82.42,10.72,34.08,4.47,68.18,8.9c.66.08,1.29.19,1.88.26C1665.63,363.85,1665.15,364.32,1664,364.62Zm18.78-19.81c.92,7,.81,7.15-6,6.23q-43.78-5.7-87.54-11.49l-65.49-8.5c-1.21-.19-2.43-.22-3.68-.3a2.15,2.15,0,0,1-2.17-1.36,1.8,1.8,0,0,1,1-2.25l23.38-23.37c15.27-15.28,30.4-30.63,45.83-45.76,22.78-22.34,45.06-45.13,67.81-67.51.92-.92,1.65-2,2.5-3a2.64,2.64,0,0,1,2.76-1.21c1.21.33,1.51,1.36,1.66,2.46,1.69,16.79,4.19,33.43,6.25,50.14,2.4,19.33,4.94,38.65,7.4,58C1678.62,312.86,1680.68,328.84,1682.82,344.81Zm57.24-170.69c-1.55,5.81-3.09,11.56-4.68,17.34-2.46,8.94-5,17.89-7.43,26.8q-14.09,51.41-28.09,102.66c-1,3.54-2,7.07-3,10.61-.18.62-.07,1.62-1.14,1.65-1.32,0-1-1.18-1-1.84q-4.47-33.73-8.87-67.4-5.35-40.69-10.68-81.43c-.77-6.07-.47-6.29,5.6-6.85,17.67-1.62,35.34-3.38,53-5.08,1.4-.14,2.76-.18,4.19-.22a2.64,2.64,0,0,1,2,.63C1740.61,171.87,1740.35,173,1740.06,174.12ZM1624.47,45.06l110,110,1.8,1.81c-8.8.84-16.9,1.65-25,2.46l-36.08,3.54c-3.61.37-4.49-.15-5.85-3.43q-16.9-40.2-33.83-80.36c-4.49-10.75-9.06-21.49-13.55-32.24-.62-1.44-2.21-3.54-1-4.38S1623.4,44,1624.47,45.06Z"/><path class="cls-2" d="M0,425.75V5.88H75.27V362.24H250.51v63.51Z"/><path class="cls-2" d="M708.59,195.24H867.37V408.7a534,534,0,0,1-68.8,16.76q-35.3,6.18-80,6.17-95.26,0-146.42-56.45T521,215.23q0-65.28,25.58-113.79t74.39-75Q669.78,0,739.76,0a306.54,306.54,0,0,1,66.16,7.06,335.77,335.77,0,0,1,58.51,18.23L838.56,87A304.93,304.93,0,0,0,792.1,70.57,204.53,204.53,0,0,0,738,63.51q-42.93,0-74.1,18.82T616,135.55q-16.77,34.39-16.76,80.85,0,44.7,12.93,78.8t41.17,53.52q28.23,19.39,73.51,19.4,22.33,0,37.63-2.35t28.81-5.29V259.33H708.59Z"/><path class="cls-2" d="M1227.26,425.75,1189,314.61H1030.85L993.21,425.75h-80L1067.31,4.12h85.85l154.07,421.63Zm-94.09-284q-2.36-8.22-7.06-22.35T1117,90.27q-4.41-15-6.76-25-3,11.78-7.36,27.05t-8.52,28.82q-4.12,13.53-5.88,20.58l-37,108.2h118.2Z"/><rect class="cls-2" x="339.89" y="5.85" width="75.27" height="419.87"/></g></g></svg>